# xmcd
#
# Track frame offsets: 
#        150
#        22480
#        42950
#        61257
#        74789
#        102970
#        122912
#        145302
#        162564
#        184055
#        200135
#        221625
#
# Disc length: 3171 seconds
#
# Revision: 0
# Processed by: cddbd v1.5.2PL0 Copyright (c) Steve Scherf et al.
# Submitted via: ExactAudioCopyFreeDBPlugin 1.0
#
DISCID=c90c610c
DTITLE=Michael Daves - Orchids and Violence  Disc 2 Electric
DYEAR=2016
DGENRE=Bluegrass
TTITLE0=June Apple
TTITLE1=The Dirt That You Throw
TTITLE2=Darling Corey
TTITLE3=Elzic's Farewell
TTITLE4=A Good Year for the Roses
TTITLE5=Drunken Hiccups
TTITLE6=Stargazer
TTITLE7=Dark Angel
TTITLE8=The 28th of January
TTITLE9=I Only Exist
TTITLE10=Pretty Polly
TTITLE11=Train on the Island
EXTD=
EXTT0=
EXTT1=
EXTT2=
EXTT3=
EXTT4=
EXTT5=
EXTT6=
EXTT7=
EXTT8=
EXTT9=
EXTT10=
EXTT11=
PLAYORDER=
